<svg xmlns="http://www.w3.org/2000/svg" viewBox="0 0 32 32">
  <!-- Background circle -->
  <circle cx="16" cy="16" r="15" fill="#1B3A57"/>
  <circle cx="16" cy="16" r="12" fill="none" stroke="#4A7C9B" stroke-width="1.5"/>
  
  <!-- Compass rose points -->
  <!-- North -->
  <polygon points="16,3 18,13 16,11 14,13" fill="#FFFFFF"/>
  <!-- South -->
  <polygon points="16,29 18,19 16,21 14,19" fill="#7BA3BE"/>
  <!-- East -->
  <polygon points="29,16 19,18 21,16 19,14" fill="#7BA3BE"/>
  <!-- West -->
  <polygon points="3,16 13,18 11,16 13,14" fill="#7BA3BE"/>
  
  <!-- Diagonal points (smaller) -->
  <!-- NE -->
  <polygon points="24.5,7.5 18,12 19,13" fill="#4A7C9B"/>
  <!-- SE -->
  <polygon points="24.5,24.5 18,20 19,19" fill="#4A7C9B"/>
  <!-- SW -->
  <polygon points="7.5,24.5 14,20 13,19" fill="#4A7C9B"/>
  <!-- NW -->
  <polygon points="7.5,7.5 14,12 13,13" fill="#4A7C9B"/>
  
  <!-- Center circle -->
  <circle cx="16" cy="16" r="3" fill="#1B3A57" stroke="#FFFFFF" stroke-width="1.5"/>
  <circle cx="16" cy="16" r="1" fill="#FFFFFF"/>
</svg>
